<svg width="16" height="16" viewBox="0 0 16 16" fill="none" xmlns="http://www.w3.org/2000/svg">
<path d="M9.77405 6.66958L9.77966 6.66577L9.75986 6.59627C9.71628 6.44334 9.56404 6.32762 9.39893 6.34768C9.3677 6.34937 9.29243 6.35927 9.19015 6.38426C9.07401 6.41263 8.91758 6.46171 8.74078 6.54491C8.40546 6.7027 7.99711 6.98318 7.65263 7.47626C7.38764 7.30785 6.97329 7.15788 6.42656 7.29393C6.29058 7.31879 6.17487 7.43287 6.17123 7.59219C6.08095 8.23014 6.30843 8.84742 6.61302 9.35902C6.91331 9.86339 7.2949 10.2758 7.54664 10.521C7.56252 10.5582 7.58046 10.594 7.59546 10.6239L7.59572 10.6244C7.611 10.6549 7.62174 10.6766 7.62824 10.6922C7.63643 10.8631 7.64825 11.0075 7.66011 11.1146C7.66621 11.1697 7.6724 11.2157 7.67825 11.2506C7.68116 11.268 7.68414 11.2836 7.68719 11.2966C7.68869 11.3031 7.6909 11.3122 7.69415 11.3218C7.72457 11.4852 7.88324 11.5874 8.03114 11.5874H8.07927V11.5882L8.09185 11.5866C8.2732 11.5636 8.41341 11.385 8.36927 11.1959L8.36856 11.1914L8.3649 11.1666C8.36177 11.1447 8.35739 11.1121 8.3525 11.07C8.34364 10.9937 8.3331 10.8866 8.32525 10.7559C8.56208 10.4972 9.20009 9.75682 9.52869 9.10031L9.5287 9.10031L9.52941 9.09883C9.81887 8.49605 9.87593 7.88281 9.86164 7.41681C9.85448 7.18344 9.8294 6.98594 9.8061 6.84366C9.79445 6.77249 9.78325 6.71516 9.77501 6.67436L9.77405 6.66958ZM6.98184 8.07859C6.92088 8.12218 6.88061 8.17847 6.85875 8.23969C6.83691 8.13851 6.82344 8.03686 6.82012 7.93543C6.98558 7.93505 7.11764 7.97423 7.2192 8.02466C7.14075 8.01591 7.05968 8.03346 6.99034 8.07313L6.99009 8.07269L6.98184 8.07859ZM8.89408 8.78798C8.75732 9.05724 8.55612 9.35211 8.35426 9.61323C8.44355 9.07764 8.62867 8.48308 9.00882 7.96332L9.00882 7.96332L9.00944 7.96245C9.11806 7.81055 9.09969 7.60221 8.93814 7.48668C8.82306 7.40439 8.67557 7.39499 8.5606 7.46553C8.76997 7.28696 8.97679 7.18321 9.13932 7.1228C9.20053 7.49403 9.20814 8.15933 8.9024 8.77133L8.89408 8.78798ZM8.00878 8.17271C8.14762 7.90649 8.30804 7.70283 8.47053 7.54702C8.46801 7.55028 8.46552 7.55361 8.46308 7.55701C8.17363 7.94345 7.97563 8.36365 7.84141 8.77626C7.86208 8.57287 7.9147 8.36898 8.00878 8.17271Z" fill="#213F7D" stroke="#213F7D" stroke-width="0.2"/>
<path d="M4.46 11.84C4.46 12.0234 4.61665 12.18 4.8 12.18C4.98335 12.18 5.14 12.0234 5.14 11.84V5.76C5.14 5.57665 4.98335 5.42 4.8 5.42C4.61665 5.42 4.46 5.57665 4.46 5.76V11.84Z" fill="#213F7D" stroke="#213F7D" stroke-width="0.2"/>
<path d="M2.86 11.84C2.86 12.0234 3.01665 12.18 3.2 12.18C3.38336 12.18 3.54 12.0234 3.54 11.84V5.76C3.54 5.57665 3.38336 5.42 3.2 5.42C3.01665 5.42 2.86 5.57665 2.86 5.76V11.84Z" fill="#213F7D" stroke="#213F7D" stroke-width="0.2"/>
<path d="M10.86 11.84C10.86 12.0234 11.0166 12.18 11.2 12.18C11.3834 12.18 11.54 12.0234 11.54 11.84V5.76C11.54 5.57665 11.3834 5.42 11.2 5.42C11.0166 5.42 10.86 5.57665 10.86 5.76V11.84Z" fill="#213F7D" stroke="#213F7D" stroke-width="0.2"/>
<path d="M12.46 11.84C12.46 12.0234 12.6167 12.18 12.8 12.18C12.9834 12.18 13.14 12.0234 13.14 11.84V5.76C13.14 5.57665 12.9834 5.42 12.8 5.42C12.6167 5.42 12.46 5.57665 12.46 5.76V11.84Z" fill="#213F7D" stroke="#213F7D" stroke-width="0.2"/>
<path d="M13.36 5.3H13.5821L13.5367 5.24873C13.6336 5.18874 13.7013 5.08323 13.7148 4.97134L13.7156 4.97143V4.95929C13.7156 4.8291 13.6337 4.69699 13.517 4.64605L8.18349 1.46844C8.08117 1.39471 7.94245 1.40256 7.83672 1.46611C7.83667 1.46613 7.83663 1.46615 7.83659 1.46618L2.47688 4.66601L2.47682 4.6659L2.47268 4.66866C2.35045 4.75014 2.2755 4.88566 2.31859 5.04571C2.34564 5.1924 2.48646 5.3 2.64001 5.3H13.36ZM12.119 4.62H3.86583L7.99992 2.1484L12.119 4.62Z" fill="#213F7D" stroke="#213F7D" stroke-width="0.2"/>
<path d="M2.64 12.98H13.36C13.5434 12.98 13.7 12.8234 13.7 12.64C13.7 12.4566 13.5434 12.3 13.36 12.3H2.64C2.45665 12.3 2.3 12.4566 2.3 12.64C2.3 12.8234 2.45665 12.98 2.64 12.98Z" fill="#213F7D" stroke="#213F7D" stroke-width="0.2"/>
<path d="M1.84 13.78H14.16C14.3434 13.78 14.5 13.6234 14.5 13.44C14.5 13.2566 14.3434 13.1 14.16 13.1H1.84C1.65665 13.1 1.5 13.2566 1.5 13.44C1.5 13.6234 1.65665 13.78 1.84 13.78Z" fill="#213F7D" stroke="#213F7D" stroke-width="0.2"/>
<path d="M1.04 14.58H14.96C15.1434 14.58 15.3 14.4234 15.3 14.24C15.3 14.0566 15.1434 13.9 14.96 13.9H1.04C0.85665 13.9 0.700003 14.0566 0.700003 14.24C0.700003 14.4234 0.85665 14.58 1.04 14.58Z" fill="#213F7D" stroke="#213F7D" stroke-width="0.2"/>
</svg>
