<svg width="22" height="22" viewBox="0 0 22 22" fill="none" xmlns="http://www.w3.org/2000/svg">
<g clip-path="url(#clip0_5_59)">
<path d="M10.7809 13.9717L10.8295 14.0592C10.8282 14.0599 10.827 14.0605 10.8257 14.0611L10.7809 13.9717ZM10.7809 13.9717C10.8108 13.9567 10.8408 13.942 10.8707 13.9275L10.8683 13.9231L10.7809 13.9717ZM19.2882 13.4376C19.288 13.4375 19.2879 13.4374 19.2877 13.4374C18.6974 13.1974 18.2366 13.0011 17.9162 12.7334C17.6117 12.4789 17.4326 12.158 17.4084 11.6562C17.6451 11.3531 17.7986 10.9771 17.8978 10.6432C17.9958 10.3135 18.0427 10.0182 18.0633 9.86119C18.4558 9.24651 18.6135 8.62021 18.5473 8.18822C18.8775 7.39118 18.6457 6.74349 18.4261 6.23024C18.2437 5.79195 18.1121 5.42116 18.2809 4.9465L18.3906 4.65427L18.421 4.57335L18.3453 4.53158L18.0153 4.34939L18.0154 4.3492L18.0094 4.3464C16.8165 3.78709 15.4665 3.70847 14.4811 4.12482L14.4811 4.12475L14.4774 4.12645C13.8423 4.4252 13.3485 4.91219 13.1145 5.58763C12.7367 5.90254 12.5609 6.36164 12.5005 6.82114C12.4402 7.27954 12.4932 7.74921 12.5839 8.10501C12.478 8.57831 12.6742 9.21149 13.0676 9.82601C13.0882 9.98264 13.1351 10.2779 13.2331 10.6076C13.3321 10.9411 13.4853 11.3166 13.7213 11.6195C13.6803 12.1225 13.5005 12.4442 13.2003 12.6986C12.8846 12.9661 12.433 13.1624 11.8432 13.4021L11.8273 13.4085C11.4663 13.5531 11.1019 13.699 10.7361 13.8823L10.6428 13.9291L10.6935 14.0203L11.0604 14.6803L11.109 14.7676L11.1964 14.7192C11.4106 14.6004 11.6199 14.5151 11.8355 14.4273C11.9469 14.3819 12.06 14.3358 12.1763 14.2841C12.7413 14.0654 13.3623 13.8217 13.8399 13.4056C14.3245 12.9835 14.6578 12.3878 14.6578 11.4787V11.3317V11.2903L14.6286 11.261L14.5186 11.151C14.3348 10.9672 14.2032 10.6748 14.1177 10.3824C14.0326 10.0915 13.9978 9.81685 13.9978 9.68175V9.57175V9.54789L13.9871 9.5266L13.9501 9.45356L13.9508 9.45323L13.9441 9.44323C13.729 9.12055 13.6145 8.8548 13.5581 8.65968C13.5299 8.56203 13.5164 8.48288 13.5119 8.42371C13.5078 8.36981 13.5115 8.33825 13.5144 8.32519L13.5835 8.18626L13.5999 8.15318L13.5909 8.11736L13.554 7.97041L13.5542 7.97034L13.5519 7.96321C13.4649 7.70202 13.4206 7.34061 13.4558 7.00623C13.4913 6.66818 13.6048 6.38459 13.8062 6.24449L13.9153 6.17201L13.9476 6.15061L13.957 6.11309L13.9936 5.96774C14.1331 5.48179 14.4069 5.14056 14.8894 4.93366L14.8895 4.93372L14.8928 4.93213C15.5387 4.62634 16.4281 4.64713 17.2688 4.97767C17.1823 5.59109 17.3669 6.06782 17.5437 6.49091C17.5559 6.52514 17.568 6.55867 17.5799 6.59159C17.749 7.05944 17.8734 7.40389 17.6218 7.87463L17.6213 7.87434L17.6172 7.8847L17.5441 8.06774L17.5275 8.10927L17.5474 8.14932L17.6185 8.29223C17.6188 8.29412 17.6196 8.2984 17.6202 8.30578C17.6214 8.32077 17.6216 8.34272 17.6196 8.37185C17.6155 8.42989 17.603 8.5108 17.5767 8.61141C17.5245 8.81185 17.4188 9.0863 17.223 9.40749L17.1505 9.51367L17.1331 9.53917V9.57004V9.67376C17.1144 9.82136 17.0783 10.0957 16.999 10.3821C16.9178 10.6755 16.7951 10.9666 16.6124 11.1493L16.5024 11.2593L16.4731 11.2886V11.33V11.477C16.4731 12.3861 16.8065 12.9818 17.291 13.4039C17.7693 13.8206 18.3913 14.0644 18.957 14.2833C19.5285 14.5045 20.0441 14.71 20.4373 15.0368C20.8038 15.3416 21.0671 15.7552 21.1538 16.4H14.667H14.567V16.5V17.2331V17.3331H14.667H22H22.1V17.2331V16.8661C22.1 15.7212 21.7041 14.9794 21.1466 14.4649C20.595 13.9558 19.8906 13.675 19.2882 13.4376Z" fill="#DF18FF" stroke="#DF18FF" stroke-width="0.2"/>
<path d="M11.528 11.2079C11.2099 11.006 11.0004 10.6481 10.8478 10.1812C10.695 9.71365 10.6045 9.15369 10.5127 8.56545L10.5126 8.56445C10.5081 8.53792 10.5037 8.51126 10.4993 8.48449C10.3571 7.6287 10.1955 6.65605 9.75846 5.89126C9.53166 5.49436 9.22924 5.15027 8.81487 4.90598C8.40045 4.66166 7.88033 4.52087 7.22392 4.52087C6.14637 4.52087 5.53815 5.03198 5.22969 5.33766C4.2622 5.58719 3.75817 6.1283 3.49682 6.77944C3.24049 7.41809 3.21981 8.15862 3.20167 8.80799L3.20094 8.83423C3.20094 8.83437 3.20093 8.8345 3.20093 8.83464C3.18236 9.35066 3.16407 9.83443 3.06168 10.2486C2.96036 10.6584 2.77924 10.9889 2.44231 11.2091L2.11541 11.3904L2.02052 11.443L2.08071 11.5333L2.3007 11.8633C2.81691 12.638 3.96456 13.3623 5.15284 13.7087C4.74433 14.862 3.75589 15.2426 2.68054 15.6366C2.04186 15.8551 1.34551 16.0982 0.811165 16.5472C0.269578 17.0023 -0.1 17.6633 -0.1 18.7V19.067V19.167H0H13.933H14.033V19.067V18.7C14.033 17.6633 13.6635 17.0025 13.127 16.5474C12.5975 16.0982 11.9104 15.8547 11.2909 15.6359C11.2749 15.6301 11.2589 15.6242 11.243 15.6184C10.1834 15.2304 9.21975 14.8775 8.81722 13.708C10.0058 13.3617 11.153 12.6373 11.6701 11.8625L11.6702 11.8624L11.8902 11.5324L11.9504 11.4421L11.8555 11.3895L11.528 11.2079ZM12.4139 17.1714C12.7533 17.4178 12.993 17.74 13.0804 18.233H0.885611C0.972968 17.723 1.21322 17.4009 1.55226 17.1586C1.89855 16.9112 2.34679 16.7472 2.85636 16.5607C2.8931 16.5472 2.93015 16.5337 2.96751 16.5199L2.96788 16.5198C2.98244 16.5144 2.99702 16.509 3.01163 16.5036C3.63804 16.2708 4.31282 16.0201 4.88621 15.5843C5.47744 15.135 5.95844 14.4914 6.1837 13.4778L6.18372 13.4778L6.18415 13.4756L6.2572 13.1086L6.27672 13.0106L6.17865 12.991L5.81169 12.918L5.81169 12.918L5.81035 12.9177C4.87991 12.7457 3.88295 12.2082 3.33135 11.6619C3.6876 11.3065 3.87773 10.8643 3.9834 10.3976C4.09456 9.90661 4.1137 9.38087 4.13149 8.89255L4.1321 8.87579H4.13211L4.13214 8.87461C4.1507 8.11936 4.1882 7.52535 4.38069 7.08333C4.47559 6.86543 4.60773 6.68609 4.79419 6.54354C4.98132 6.40047 5.22786 6.29087 5.55633 6.2199L5.55646 6.2205L5.56705 6.21695L5.67705 6.17999L5.69931 6.17251L5.71592 6.15591L5.78896 6.08286L5.78946 6.08236C6.04114 5.83068 6.41967 5.45215 7.22129 5.45215C7.65914 5.45215 7.99995 5.52811 8.27152 5.66848C8.54227 5.80842 8.75076 6.01575 8.91924 6.28932C9.26016 6.84288 9.43195 7.65663 9.6157 8.70564C9.70696 9.27248 9.79964 9.84745 9.95778 10.3682C10.106 10.8563 10.3138 11.3042 10.6385 11.6586C10.0876 12.2059 9.0885 12.7445 8.15607 12.9178L8.15606 12.9177L8.15481 12.918L7.78785 12.991L7.68977 13.0106L7.7093 13.1086L7.78234 13.4756L7.78243 13.476C7.98903 14.491 8.47062 15.1352 9.06674 15.5846C9.63655 16.0142 10.3094 16.2639 10.9286 16.4938C10.952 16.5025 10.9754 16.5112 10.9986 16.5198L10.9991 16.52L11.0071 16.5229C11.5578 16.7247 12.0443 16.903 12.4139 17.1714Z" fill="#DF18FF" stroke="#DF18FF" stroke-width="0.2"/>
</g>
<defs>
<clipPath id="clip0_5_59">
<rect width="22" height="22" fill="white"/>
</clipPath>
</defs>
</svg>
