<svg width="20" height="20" viewBox="0 0 20 20" fill="none" xmlns="http://www.w3.org/2000/svg">
<path d="M1.96173 0.399999V16.4118H8.31573V15.2118H3.16173V1.6H9.19993V5.9578H13.3155V9.6538H14.5155V4.9256L10.0881 0.399799L1.96173 0.399999ZM10.3999 2.436L12.6741 4.7578H10.3999V2.436Z" fill="#F55F44"/>
<path d="M4.39381 8.3524H11.604V9.5524H4.39381V8.3524Z" fill="#F55F44"/>
<path d="M4.39381 10.9524H8.004V12.1524H4.39381V10.9524Z" fill="#F55F44"/>
<path d="M18.0382 17.9422V12.4C18.0382 10.7719 14.1922 10.7258 13.7538 10.7258C13.3155 10.7258 9.47179 10.7758 9.47179 12.4V17.9796C9.47257 18.0405 9.48273 18.1007 9.50226 18.1577C9.84366 19.5601 13.3383 19.5999 13.7563 19.5999C14.1743 19.5999 17.9563 19.5522 18.0359 17.9741C18.0359 17.9655 18.0382 17.9562 18.0382 17.9421L18.0382 17.9422ZM16.8382 14.1422C16.5999 14.3617 15.4999 14.7203 13.7562 14.7203C12.0117 14.7203 10.9202 14.3617 10.6718 14.15V13.6344C11.8398 14.0602 13.4718 14.0781 13.7562 14.0781C14.0406 14.0781 15.6718 14.0578 16.8406 13.6344L16.8382 14.1422ZM10.6718 15.4758C11.8398 15.9016 13.4718 15.9196 13.7562 15.9196C14.0406 15.9196 15.6718 15.8992 16.8406 15.4758L16.8398 16C16.5922 16.2117 15.5 16.5703 13.7554 16.5703C12.0117 16.5703 10.9202 16.2 10.6718 16L10.6718 15.4758ZM13.7562 11.9298C15.2562 11.9298 16.2742 12.1954 16.6882 12.404C16.2741 12.604 15.2562 12.8782 13.7562 12.8782C12.2562 12.8782 11.2358 12.6142 10.8242 12.4001C11.2359 12.2001 12.2539 11.9298 13.7562 11.9298ZM10.6718 17.8344V17.318C11.8398 17.7438 13.4718 17.7618 13.7562 17.7618C14.0406 17.7618 15.6718 17.7414 16.8406 17.318V17.8336C16.5898 18.0461 15.5 18.4 13.7562 18.4C12.0117 18.4 10.9202 18.0461 10.6718 17.8344Z" fill="#F55F44"/>
</svg>
