<svg width="18" height="18" viewBox="0 0 18 18" fill="none" xmlns="http://www.w3.org/2000/svg">
<g clip-path="url(#clip0_5_43)">
<path d="M16.6002 2.25C16.6002 1.52193 16.0002 0.934328 15.1059 0.534069C14.2049 0.130866 12.9713 -0.1 11.6248 -0.1C10.2786 -0.1 9.0451 0.130867 8.14428 0.534071C7.25004 0.93433 6.64999 1.52193 6.64999 2.25C6.64999 2.97807 7.25004 3.56567 8.14428 3.96593C9.0451 4.36913 10.2786 4.6 11.6248 4.6C12.9713 4.6 14.2049 4.36913 15.1059 3.96593C16.0002 3.56567 16.6002 2.97807 16.6002 2.25ZM7.60023 2.25C7.60023 2.10802 7.68873 1.94724 7.88614 1.78025C8.08165 1.61485 8.37053 1.45542 8.7363 1.31648C9.46698 1.03894 10.4858 0.85024 11.6248 0.85024C12.7637 0.85024 13.7827 1.03894 14.5136 1.31649C14.8794 1.45543 15.1684 1.61487 15.364 1.78027C15.5615 1.94727 15.65 2.10804 15.65 2.25C15.65 2.39196 15.5615 2.55273 15.364 2.71974C15.1684 2.88513 14.8794 3.04457 14.5136 3.18351C13.7827 3.46106 12.7637 3.64976 11.6248 3.64976C10.4858 3.64976 9.46698 3.46106 8.7363 3.18351C8.37053 3.04457 8.08165 2.88514 7.88614 2.71975C7.68873 2.55275 7.60023 2.39198 7.60023 2.25Z" fill="#FF3366" stroke="#FF3366" stroke-width="0.2"/>
<path d="M16.6002 2.25V2.15H16.5002H15.75H15.65V2.25V4.5C15.65 4.64197 15.5615 4.80274 15.364 4.96974C15.1684 5.13514 14.8794 5.29458 14.5136 5.43352C13.7827 5.71106 12.7637 5.89976 11.6248 5.89976C10.4858 5.89976 9.46698 5.71106 8.7363 5.43351C8.37053 5.29457 8.08165 5.13514 7.88614 4.96975C7.68873 4.80275 7.60023 4.64198 7.60023 4.5V2.25V2.15H7.50023H6.74999H6.64999V2.25V4.5C6.64999 5.22807 7.25004 5.81567 8.14428 6.21593C9.0451 6.61913 10.2786 6.85 11.6248 6.85C12.9713 6.85 14.2049 6.61913 15.1059 6.21593C16.0002 5.81567 16.6002 5.22807 16.6002 4.5V2.25Z" fill="#FF3366" stroke="#FF3366" stroke-width="0.2"/>
<path d="M6.64999 6.75702V6.839L6.73038 6.85508L6.73039 6.85508L6.73836 6.85667L6.74648 6.85696C7.00336 6.86601 7.2532 6.8848 7.49322 6.91194L7.62051 6.92632L7.60358 6.79935C7.60132 6.78245 7.60023 6.76648 7.60023 6.74999V4.49999V4.39999H7.50023H6.74999H6.64999V4.49999V6.74999V6.75702ZM10.5008 8.94543L10.5045 9.0446C10.8651 9.0808 11.2404 9.09995 11.6248 9.09995C12.9713 9.09995 14.2049 8.86908 15.1059 8.46588C16.0002 8.06562 16.6002 7.47802 16.6002 6.74995V4.49995V4.39995H16.5002H15.75H15.65V4.49995V6.74995C15.65 6.89191 15.5615 7.05268 15.364 7.21969C15.1684 7.38509 14.8794 7.54452 14.5136 7.68346C13.7827 7.96101 12.7637 8.14971 11.6248 8.14971C11.2361 8.14971 10.8616 8.12811 10.5068 8.08777L10.3795 8.07328L10.3964 8.20034C10.3987 8.21717 10.3998 8.23385 10.3998 8.24971C10.3998 8.31385 10.4054 8.56946 10.4146 8.94751L10.5008 8.94543Z" fill="#FF3366" stroke="#FF3366" stroke-width="0.2"/>
<path d="M10.4708 11.1523L10.3083 11.2762L10.5626 11.3004C10.9055 11.3331 11.2609 11.3501 11.6247 11.3501C12.9712 11.3501 14.2049 11.1192 15.1058 10.716C16.0001 10.3158 16.6002 9.72815 16.6002 9.00008V6.75008V6.65008H16.5002H15.7499H15.6499V6.75008V9.00008C15.6499 9.14205 15.5614 9.30282 15.3639 9.46982C15.1684 9.63522 14.8794 9.79466 14.5135 9.93359C13.7827 10.2111 12.7637 10.3998 11.6247 10.3998C11.257 10.3998 10.9005 10.3803 10.5631 10.3442L10.4495 10.332L10.4525 10.4462C10.4544 10.5217 10.4564 10.5983 10.4584 10.6757C10.4624 10.8315 10.4664 10.9908 10.4708 11.1523ZM7.60023 6.75005V6.65005H7.50023H6.74999H6.64999V6.75005V6.75708V6.8536L6.74645 6.85702C7.00189 6.86606 7.24972 6.88486 7.48926 6.91132L7.49602 6.85005H7.50023V6.81192H7.60023V6.75005Z" fill="#FF3366" stroke="#FF3366" stroke-width="0.2"/>
<path d="M11.35 9C11.35 8.27193 10.75 7.68433 9.85574 7.28407C8.95492 6.88087 7.72145 6.65 6.37527 6.65C5.02872 6.65 3.79508 6.88087 2.89417 7.28407C1.99983 7.68433 1.39979 8.27193 1.39979 9C1.39979 9.72807 1.99983 10.3157 2.89417 10.7159C3.79508 11.1191 5.02872 11.35 6.37527 11.35C7.72145 11.35 8.95492 11.1191 9.85574 10.7159C10.75 10.3157 11.35 9.72807 11.35 9ZM2.35003 9C2.35003 8.85803 2.43855 8.69726 2.63603 8.53026C2.83161 8.36486 3.12058 8.20542 3.48644 8.06648C4.21731 7.78894 5.23628 7.60024 6.37527 7.60024C7.51425 7.60024 8.53304 7.78894 9.26372 8.06649C9.62949 8.20543 9.91837 8.36486 10.1139 8.53025C10.3113 8.69725 10.3998 8.85802 10.3998 9C10.3998 9.14198 10.3113 9.30275 10.1139 9.46975C9.91837 9.63514 9.62949 9.79457 9.26372 9.93351C8.53304 10.2111 7.51425 10.3998 6.37527 10.3998C5.23628 10.3998 4.21731 10.2111 3.48644 9.93351C3.12058 9.79457 2.83161 9.63513 2.63603 9.46974C2.43855 9.30273 2.35003 9.14196 2.35003 9Z" fill="#FF3366" stroke="#FF3366" stroke-width="0.2"/>
<path d="M11.35 9V8.9H11.25H10.4998H10.3998V9V11.25C10.3998 11.392 10.3113 11.5528 10.1139 11.7198C9.91837 11.8851 9.62949 12.0446 9.26372 12.1835C8.53304 12.4611 7.51425 12.6498 6.37527 12.6498C5.23628 12.6498 4.21731 12.4611 3.48644 12.1835C3.12058 12.0446 2.83161 11.8851 2.63603 11.7197C2.43855 11.5527 2.35003 11.392 2.35003 11.25V9V8.9H2.25003H1.49979H1.39979V9V11.25C1.39979 11.9781 1.99983 12.5657 2.89417 12.9659C3.79508 13.3691 5.02872 13.6 6.37527 13.6C7.72145 13.6 8.95492 13.3691 9.85574 12.9659C10.75 12.5657 11.35 11.9781 11.35 11.25V9Z" fill="#FF3366" stroke="#FF3366" stroke-width="0.2"/>
<path d="M11.35 11.25V11.15H11.25H10.4998H10.3998V11.25V13.5C10.3998 13.642 10.3113 13.8028 10.1139 13.9698C9.91837 14.1351 9.62949 14.2946 9.26372 14.4335C8.53304 14.7111 7.51425 14.8998 6.37527 14.8998C5.23628 14.8998 4.21731 14.7111 3.48644 14.4335C3.12058 14.2946 2.83161 14.1351 2.63603 13.9697C2.43855 13.8027 2.35003 13.642 2.35003 13.5V11.25V11.15H2.25003H1.49979H1.39979V11.25V13.5C1.39979 14.2281 1.99983 14.8157 2.89417 15.2159C3.79508 15.6191 5.02872 15.85 6.37527 15.85C7.72145 15.85 8.95492 15.6191 9.85574 15.2159C10.75 14.8157 11.35 14.2281 11.35 13.5V11.25Z" fill="#FF3366" stroke="#FF3366" stroke-width="0.2"/>
<path d="M11.35 13.5V13.4H11.25H10.4998H10.3998V13.5V15.75C10.3998 15.892 10.3113 16.0528 10.1139 16.2198C9.91837 16.3851 9.62949 16.5446 9.26372 16.6835C8.53304 16.9611 7.51425 17.1498 6.37527 17.1498C5.23628 17.1498 4.21731 16.9611 3.48644 16.6835C3.12058 16.5446 2.83161 16.3851 2.63603 16.2197C2.43855 16.0527 2.35003 15.892 2.35003 15.75V13.5V13.4H2.25003H1.49979H1.39979V13.5V15.75C1.39979 16.4781 1.99983 17.0657 2.89417 17.4659C3.79508 17.8691 5.02872 18.1 6.37527 18.1C7.72145 18.1 8.95492 17.8691 9.85574 17.4659C10.75 17.0657 11.35 16.4781 11.35 15.75V13.5Z" fill="#FF3366" stroke="#FF3366" stroke-width="0.2"/>
<path d="M10.54 13.4958L10.5635 13.5507L10.623 13.556C10.9474 13.5851 11.2822 13.6 11.6247 13.6C12.9713 13.6 14.2049 13.3692 15.1058 12.966C16.0002 12.5657 16.6002 11.9781 16.6002 11.25V9.00004V8.90004H16.5002H15.75H15.65V9.00004V11.25C15.65 11.392 15.5615 11.5528 15.364 11.7198C15.1684 11.8852 14.8794 12.0446 14.5136 12.1836C13.7827 12.4611 12.7637 12.6498 11.6247 12.6498C11.2779 12.6498 10.9423 12.6324 10.6222 12.6004L10.5095 12.5891L10.5123 12.7023C10.5164 12.8718 10.5209 13.0392 10.5252 13.203C10.5275 13.2894 10.5298 13.3749 10.532 13.459L10.5325 13.4782L10.54 13.4958L10.54 13.4958Z" fill="#FF3366" stroke="#FF3366" stroke-width="0.2"/>
<path d="M10.5989 15.7457L10.6206 15.8064L10.685 15.8117C10.9893 15.8365 11.3042 15.85 11.6248 15.85C12.9713 15.85 14.2049 15.6191 15.1059 15.2159C16.0002 14.8157 16.6002 14.2281 16.6002 13.5V11.25V11.15H16.5002H15.75H15.65V11.25V13.5C15.65 13.642 15.5615 13.8027 15.364 13.9697C15.1684 14.1351 14.8794 14.2946 14.5136 14.4335C13.7827 14.7111 12.7637 14.8997 11.6248 14.8997C11.2995 14.8997 10.9841 14.8844 10.6821 14.8559L10.5697 14.8453L10.5728 14.9582C10.5779 15.1476 10.5822 15.3097 10.5856 15.4372C10.5892 15.5703 10.5917 15.6657 10.5932 15.7149L10.5936 15.7307L10.5989 15.7456L10.5989 15.7457Z" fill="#FF3366" stroke="#FF3366" stroke-width="0.2"/>
</g>
<defs>
<clipPath id="clip0_5_43">
<rect width="18" height="18" fill="white"/>
</clipPath>
</defs>
</svg>
