<svg width="24" height="24" viewBox="0 0 24 24" fill="none" xmlns="http://www.w3.org/2000/svg">
<path d="M5.40884 20.7755L5.40886 20.7753C5.24278 20.7637 5.10515 20.6935 5.01025 20.5773C4.93555 20.4858 4.89119 20.3707 4.87624 20.243H4.86771V20.143C4.86771 18.8381 5.21378 17.6162 5.81343 16.5614H2.43547C2.26479 16.5614 2.11856 16.4984 2.01515 16.3838C1.91292 16.2704 1.85963 16.1146 1.85642 15.9395M5.40884 20.7755L1.9564 15.9373M5.40884 20.7755H5.41582L18.5545 20.7784C18.8752 20.7784 19.1336 20.5188 19.1336 20.1993C19.1336 18.9325 18.7597 17.6106 18.1653 16.5615L21.564 16.5606C21.8847 16.5606 22.1431 16.301 22.1431 15.9815L22.1431 15.9803C22.1125 13.5787 20.7612 11.5478 18.6421 10.6785C19.7861 9.9512 20.5185 8.6743 20.5185 7.25897C20.5185 3.79603 16.468 1.96132 13.9042 4.20528C12.6927 3.70612 11.307 3.70611 10.0955 4.20528C9.37698 3.57685 8.45387 3.22247 7.48197 3.22247C3.45251 3.22247 1.99532 8.57355 5.35683 10.6801M5.40884 20.7755L5.58352 10.6986C5.54593 10.6774 5.5089 10.6558 5.47243 10.6337C5.4337 10.6487 5.39516 10.6642 5.35683 10.6801M1.85642 15.9395C1.85642 15.9394 1.85642 15.9392 1.85642 15.9391L1.9564 15.9373M1.85642 15.9395C1.85643 15.9396 1.85643 15.9397 1.85643 15.9398L1.9564 15.9373M1.85642 15.9395C1.80092 13.6744 3.27906 11.5403 5.35683 10.6801M1.9564 15.9373C1.90121 13.691 3.38576 11.5712 5.46333 10.7447C5.4273 10.7235 5.39181 10.702 5.35683 10.6801M5.98771 16.4614H5.87133L5.92872 16.5614C5.94812 16.5279 5.96778 16.4946 5.98771 16.4614ZM18.529 5.22079L18.5291 5.22083C20.2108 6.91954 19.1948 9.83041 16.877 10.118C17.3723 8.11422 16.609 6.03532 14.9942 4.82705C16.111 4.10957 17.5823 4.26358 18.529 5.22079ZM7.12484 10.1177C5.71245 9.93785 4.64034 8.71877 4.64034 7.26079C4.64034 4.96075 7.15004 3.62645 9.00804 4.82696C7.39311 6.03507 6.62977 8.1138 7.12484 10.1177ZM15.4988 10.5398C14.118 13.541 9.88199 13.5437 8.50118 10.5398C7.27857 7.87709 9.24237 4.98947 11.9891 4.98904C14.9025 5.02525 16.6823 7.96715 15.4988 10.5398ZM7.64657 11.4198C8.11471 12.2353 8.80141 12.9107 9.63061 13.3566C8.46493 13.7713 7.43565 14.482 6.63473 15.4042L3.04598 15.4043C3.31223 13.0952 5.28107 11.3434 7.64657 11.4198ZM17.3446 15.4042C16.5466 14.4875 15.5227 13.7755 14.3623 13.3621C15.1946 12.9141 15.8859 12.2383 16.3561 11.4198C18.7216 11.3434 20.6905 13.0943 20.9567 15.4042H17.3446ZM6.04801 19.6202C6.1692 18.1942 6.8066 16.8488 7.77185 15.8727C11.3811 12.2248 17.512 14.5852 17.9317 19.6202H6.04801Z" fill="#5718FF" stroke="#5718FF" stroke-width="0.2"/>
<path d="M14.275 10.3266C14.3596 10.1626 14.3631 10.0006 14.3085 9.86203C14.2548 9.72583 14.1481 9.61917 14.0233 9.55498C13.8985 9.49079 13.7495 9.46592 13.6073 9.50127C13.4625 9.53724 13.3322 9.63383 13.2471 9.79774L13.2395 9.81235C12.7073 10.8176 11.2757 10.8107 10.7509 9.79792C10.6665 9.63421 10.5368 9.53764 10.3924 9.50168C10.2506 9.46634 10.1019 9.49122 9.97737 9.55536C9.85281 9.61949 9.74621 9.72606 9.69258 9.86214C9.638 10.0006 9.6413 10.1624 9.72563 10.3264L9.72569 10.3266C10.6816 12.179 13.3199 12.1791 14.275 10.3266ZM14.275 10.3266L14.1864 10.2808L14.275 10.3265C14.275 10.3265 14.275 10.3265 14.275 10.3266ZM14.1862 10.2807C13.2683 12.061 10.7333 12.061 9.81456 10.2807L13.3358 9.74383H13.3359H13.4019C13.7353 9.34581 14.4545 9.7607 14.1862 10.2807Z" fill="#5718FF" stroke="#5718FF" stroke-width="0.2"/>
</svg>
